<svg width="1065" height="1065" viewBox="0 0 1065 1065" fill="none" xmlns="http://www.w3.org/2000/svg">
<g clip-path="url(#clip0_89_305)">
<path d="M937.268 0.274679L125 2.05924C55.9643 2.21091 0.122954 58.2981 0.274625 127.334L2.05918 939.602C2.21085 1008.64 58.2981 1064.48 127.334 1064.33L939.602 1062.54C1008.64 1062.39 1064.48 1006.3 1064.33 937.268L1062.54 125C1062.39 55.9643 1006.3 0.123008 937.268 0.274679Z" fill="#202123"/>
<path d="M301.293 709V488H180.793V469H323.293V709H301.293ZM306.793 410.5C300.46 410.5 294.96 408.333 290.293 404C285.626 399.667 283.293 393.833 283.293 386.5C283.293 379.167 285.626 373.333 290.293 369C294.96 364.667 300.46 362.5 306.793 362.5C313.46 362.5 318.96 364.667 323.293 369C327.96 373.333 330.293 379.167 330.293 386.5C330.293 393.833 327.96 399.667 323.293 404C318.96 408.333 313.46 410.5 306.793 410.5ZM439.098 789L602.598 354H625.098L461.598 789H439.098Z" fill="white"/>
<path d="M743.902 715C727.236 715 712.736 711.667 700.402 705C688.402 698.333 679.069 689.333 672.402 678C665.736 666.667 662.402 654 662.402 640C662.402 612.333 674.902 591.167 699.902 576.5C725.236 561.833 767.236 552.833 825.902 549.5C824.902 541.833 822.402 535.333 818.402 530C814.402 524.667 808.569 520.667 800.902 518C793.569 515 784.236 513.5 772.902 513.5C764.902 513.5 756.902 514.5 748.902 516.5C740.902 518.167 732.569 520.833 723.902 524.5C715.569 527.833 706.736 531.833 697.402 536.5L671.402 488.5C682.736 481.833 694.569 476 706.902 471C719.569 466 732.569 462.167 745.902 459.5C759.569 456.5 773.402 455 787.402 455C810.736 455 830.736 459.167 847.402 467.5C864.069 475.5 876.902 487.833 885.902 504.5C894.902 520.833 899.402 541.667 899.402 567V709H839.402L833.902 681H831.902C819.569 690.333 805.902 698.333 790.902 705C775.902 711.667 760.236 715 743.902 715ZM767.402 658C778.402 658 788.736 655.833 798.402 651.5C808.069 646.833 817.236 641.167 825.902 634.5V593.5C801.569 594.833 782.569 597.333 768.902 601C755.569 604.667 746.236 609.333 740.902 615C735.569 620.667 732.902 627.167 732.902 634.5C732.902 639.5 734.236 643.833 736.902 647.5C739.902 651.167 743.902 653.833 748.902 655.5C754.236 657.167 760.402 658 767.402 658Z" fill="#29DC75"/>
<path d="M631.902 759H931.902V784H631.902V759Z" fill="#29DC75"/>
</g>
<defs>
<clipPath id="clip0_89_305">
<rect width="1065" height="1065" fill="white"/>
</clipPath>
</defs>
</svg>
